<?xml version="1.0" encoding="UTF-8" standalone="no"?>
<svg
   xmlns:dc="http://purl.org/dc/elements/1.1/"
   xmlns:cc="http://creativecommons.org/ns#"
   xmlns:rdf="http://www.w3.org/1999/02/22-rdf-syntax-ns#"
   xmlns:svg="http://www.w3.org/2000/svg"
   xmlns="http://www.w3.org/2000/svg"
   xmlns:sodipodi="http://sodipodi.sourceforge.net/DTD/sodipodi-0.dtd"
   xmlns:inkscape="http://www.inkscape.org/namespaces/inkscape"
   width="75"
   height="60"
   viewBox="0 0 150 480"
   version="1.1"
   id="svg1053"
   sodipodi:docname="TRUST_LOGO.svg"
   inkscape:version="1.0 (4035a4fb49, 2020-05-01)">
  <metadata
     id="metadata1057">
    <rdf:RDF>
      <cc:Work
         rdf:about="">
        <dc:format>image/svg+xml</dc:format>
        <dc:type
           rdf:resource="http://purl.org/dc/dcmitype/StillImage" />
      </cc:Work>
    </rdf:RDF>
  </metadata>
  <sodipodi:namedview
     inkscape:document-rotation="0"
     pagecolor="#ffffff"
     bordercolor="#666666"
     borderopacity="1"
     objecttolerance="10"
     gridtolerance="10"
     guidetolerance="10"
     inkscape:pageopacity="0"
     inkscape:pageshadow="2"
     inkscape:window-width="1920"
     inkscape:window-height="1017"
     id="namedview1055"
     showgrid="false"
     inkscape:snap-nodes="false"
     inkscape:snap-object-midpoints="false"
     inkscape:snap-page="false"
     inkscape:snap-grids="false"
     inkscape:snap-to-guides="false"
     inkscape:lockguides="true"
     inkscape:zoom="12.119737"
     inkscape:cx="48.499025"
     inkscape:cy="27.324485"
     inkscape:window-x="-8"
     inkscape:window-y="-8"
     inkscape:window-maximized="1"
     inkscape:current-layer="svg1053" />
  <defs
     id="defs1039">
    <style
       id="style1037">.cls-3{fill-rule:evenodd;fill:#fff}
</style>
  </defs>
  <g
     id="Layer_2"
     data-name="Layer 2"
     transform="matrix(1.1605416,0,0,1.2435233,-225,0)">
    <g
       id="Layer_1-2"
       data-name="Layer 1">
      <path
         fill="#dcddde"
         d="m 1,302 h 514 v 84 H 1 Z"
         id="path1041" />
      <path
         fill="#231f20"
         fill-rule="evenodd"
         d="m 449,323 h 18 v 48 h 8 v -48 h 18 v -7 h -44 z m -63,9 c 0,-6 -2,-17 -21,-17 -14,0 -19,8 -19,17 0,9 8,12 12,13 l 11,2 c 9,2 11,4 11,10 0,8 -9,9 -14,9 -7,0 -15,-3 -15,-13 h -7 c 0,5 1,10 6,14 2,2 6,6 16,6 9,0 22,-4 22,-17 0,-9 -6,-13 -13,-15 l -16,-3 c -3,-1 -6,-3 -6,-7 0,-9 8,-10 12,-10 7,0 14,3 14,11 z M 267,316 v 35 c 0,12 -8,15 -15,15 -6,0 -13,-3 -13,-15 v -35 h -8 v 37 c 0,10 6,20 21,20 15,0 22,-10 22,-21 v -36 z m -122,7 h 18 c 4,0 10,0 10,9 0,8 -6,9 -11,9 h -17 z m 0,25 h 18 c 9,0 9,5 9,9 l 2,14 h 9 v -1 c -2,-1 -3,-3 -3,-6 v -10 c -1,-7 -4,-9 -7,-10 4,-2 8,-5 8,-13 0,-12 -9,-15 -18,-15 h -26 v 55 h 8 z M 25,323 h 18 v 48 h 8 v -48 h 18 v -7 H 25 Z"
         id="path1043" />
      <path
         d="m 141,184 v 5 l -1,1 v 4 c 0,1 0,0 0,0 v 1 l -1,1 v 2 a 1,1 0 0 0 0,1 4,4 0 0 1 -1,0 v 1 c 0,1 0,0 0,0 v 1 h -1 v 1 a 3,3 0 0 1 0,1 h -1 v 1 l -1,1 v 1 l -1,1 c 0,1 0,0 0,0 a 2,2 0 0 1 -1,1 2,2 0 0 0 -1,1 v 1 h -1 a 1,1 0 0 1 0,1 h -1 c -1,0 0,0 0,0 l -1,1 -1,1 h -1 a 1,1 0 0 0 0,1 h -1 v 1 h -1 l -1,1 h -1 c -1,0 0,0 0,0 v 1 c 0,1 0,0 0,0 h -1 c -1,0 0,0 0,0 h -1 v 1 h -1 l -1,1 h -1 c -1,0 0,0 0,0 v 1 h -1 c -1,0 0,0 0,0 h -1 c -1,0 0,0 0,0 v 1 h -2 c -1,0 0,0 0,0 l -1,1 h -2 a 11,11 0 0 0 -1,1 h -2 l -1,1 h -2 l -1,1 h -2 l -2,1 h -2 c -1,0 0,0 0,0 a 5,5 0 0 0 -1,0 l -1,1 h -4 a 7,7 0 0 0 -1,0 l -3,1 a 4,4 0 0 1 -1,0 h -9 a 9,9 0 0 1 -1,0 h -2 a 9,9 0 0 1 -1,0 h -3 v -1 a 4,4 0 0 0 -1,0 14,14 0 0 1 -2,0 h -5 v -1 h -3 l -1,-1 h -2 v -1 h -1 c -1,0 0,0 0,0 h -1 v -1 h -2 v -1 h -2 v -1 h -2 v -1 h -1 c -1,0 0,0 0,0 v -1 h -2 v -1 h -1 a 1,1 0 0 1 0,-1 h -1 l -1,-1 c -1,-1 0,0 0,0 l -1,-1 -1,-1 c 0,-1 0,0 0,0 v -1 h -1 v -1 a 3,3 0 0 1 0,-1 4,4 0 0 0 0,-1 v -4 a 7,7 0 0 1 0,-1 l 1,-1 a 4,4 0 0 1 0,-1 v -1 h 1 v -2 h 1 v -2 h 1 v -1 c 0,-1 0,0 0,0 a 1,1 0 0 1 1,0 v -1 h 1 a 3,3 0 0 0 0,-1 l 1,-1 c 1,-1 0,0 0,0 a 3,3 0 0 1 1,0 v -1 c 0,-1 0,0 0,0 a 1,1 0 0 0 1,0 3,3 0 0 1 0,-1 h 1 l 1,-1 c 1,0 0,0 0,0 l 1,-1 c 0,-1 0,0 0,0 h 1 a 2,2 0 0 0 1,-1 h 1 l 1,-1 c 1,-1 0,0 0,0 h 2 l 1,-1 a 13,13 0 0 1 2,0 14,14 0 0 1 1,0 13,13 0 0 1 2,0 7,7 0 0 1 1,0 h 1 c 1,0 0,0 0,0 v 1 c 0,1 0,0 0,0 h 2 v 1 c 0,1 0,0 0,0 a 3,3 0 0 1 1,0 v 1 a 18,18 0 0 1 1,1 1,1 0 0 1 1,0 v 1 c 0,1 0,0 0,0 v 1 c 0,1 0,0 0,0 l 1,1 c 0,1 0,0 0,0 v 3 a 4,4 0 0 1 0,1 v 1 a 2,2 0 0 1 -1,0 v 1 l -1,1 c -1,1 0,0 0,0 v 1 a 1,1 0 0 0 -1,0 v 1 h -1 v 1 a 1,1 0 0 0 0,1 1,1 0 0 0 0,1 l 1,1 1,1 c 1,0 0,0 0,0 h 1 a 1,1 0 0 0 0,1 h 1 a 7,7 0 0 1 1,0 h 3 a 6,6 0 0 0 1,1 l 1,-1 1,1 c 1,0 0,0 0,0 a 5,5 0 0 0 1,0 1,1 0 0 1 1,0 3,3 0 0 1 1,0 h 2 a 8,8 0 0 1 1,-1 h 6 c 1,0 0,0 0,0 a 5,5 0 0 1 1,0 6,6 0 0 0 1,-1 h 2 a 5,5 0 0 0 1,0 8,8 0 0 1 1,-1 h 3 a 5,5 0 0 0 1,0 6,6 0 0 1 0,-1 h 1 a 1,1 0 0 0 1,0 h 1 l 1,-1 h 2 c 1,0 0,0 0,0 l 1,-1 h 1 v -1 a 5,5 0 0 0 1,0 h 1 v -1 h 2 v -1 h 1 c 1,0 0,0 0,0 h 1 v -1 h 1 a 5,5 0 0 1 0,-1 h 2 v -1 l 1,-1 h 1 a 3,3 0 0 0 0,-1 2,2 0 0 1 1,-1 v -1 h 1 v -1 h 1 c 1,0 0,0 0,0 v -2 a 1,1 0 0 0 1,0 2,2 0 0 1 0,-1 v -1 a 7,7 0 0 0 0,-2 9,9 0 0 0 0,-1 v -1 a 2,2 0 0 0 0,-1 v -1 a 6,6 0 0 0 -1,0 v -1 l -1,-1 v -1 c 0,-1 0,0 0,0 h -1 c -1,0 0,0 0,0 v -1 l -1,-1 v -1 h -1 a 4,4 0 0 0 0,-1 h -1 a 3,3 0 0 0 0,-1 h -1 l -1,-1 v -1 a 2,2 0 0 0 -1,0 v -1 c 0,-1 0,0 0,0 a 2,2 0 0 0 -1,0 v -1 h -1 a 1,1 0 0 1 0,-1 h -1 a 3,3 0 0 0 -1,-1 5,5 0 0 1 -1,-1 h -1 v -1 c 0,-1 0,0 0,0 h -1 v -1 c 0,-1 0,0 0,0 h -1 l -1,-1 c -1,0 0,0 0,0 l -1,-1 h -1 a 1,1 0 0 1 0,-1 h -1 v -1 h -1 a 1,1 0 0 0 0,-1 h -1 a 2,2 0 0 1 -1,0 v -1 h -1 v -1 h -2 v -1 h -1 c -1,0 0,0 0,0 v -1 h -2 c -1,0 0,0 0,0 v -1 h -1 v -1 h -1 a 3,3 0 0 0 0,-1 4,4 0 0 0 -1,0 l -1,-1 h -1 a 5,5 0 0 0 0,-1 2,2 0 0 1 -1,0 h -1 v -1 h -2 v -1 h -1 a 6,6 0 0 1 -1,0 v -1 a 3,3 0 0 0 -1,0 h -1 c -1,0 0,0 0,0 v -1 c 0,-1 0,0 0,0 a 3,3 0 0 0 -1,0 h -1 v -1 h -1 l -1,-1 h -1 a 1,1 0 0 0 0,-1 h -2 v -1 h -1 c -1,0 0,0 0,0 a 6,6 0 0 1 -1,-1 h -1 v -1 c 0,-1 0,0 0,0 h -1 v -1 h -1 c -1,0 0,0 0,0 v -1 c 0,-1 0,0 0,0 h -1 v -1 h -1 c -1,0 0,0 0,0 v -1 a 1,1 0 0 0 -1,0 3,3 0 0 1 0,-1 2,2 0 0 0 -1,0 v -1 l -1,-1 v -1 h -1 v -2 c 0,-1 0,0 0,0 h -1 v -1 a 3,3 0 0 0 -1,-1 v -2 h -1 v -2 l -1,-1 v -5 h -1 v -7 a 3,3 0 0 1 0,-1 1,1 0 0 0 0,-1 v -5 a 2,2 0 0 1 0,-1 4,4 0 0 0 1,0 2,2 0 0 1 0,-1 v -3 h 1 c 1,0 0,0 0,0 v -1 a 5,5 0 0 1 0,-1 v -1 c 0,-1 0,0 0,0 h 1 c 1,0 0,0 0,0 v -2 l 1,-1 v -2 h 1 v -1 a 3,3 0 0 0 0,-1 h 1 a 4,4 0 0 1 0,-1 v -1 a 1,1 0 0 0 1,0 v -2 h 1 v -1 a 2,2 0 0 0 0,-1 h 1 v -1 a 7,7 0 0 1 0,-1 h 1 v -2 h 1 a 3,3 0 0 0 0,-1 h 1 v -2 l 1,-1 c 0,-1 0,0 0,0 l 1,-1 v -1 h 1 c 1,0 0,0 0,0 a 2,2 0 0 0 0,-1 5,5 0 0 0 0,-1 h 1 v -1 h 1 v -1 l 1,-1 a 2,2 0 0 0 0,-1 h 1 v -1 c 0,-1 0,0 0,0 h 1 c 1,0 0,0 0,0 v -1 a 1,1 0 0 0 1,0 v -1 a 3,3 0 0 1 1,0 v -1 h 1 c 1,0 0,0 0,0 a 1,1 0 0 1 0,-1 h 1 c 1,0 0,0 0,0 v -1 h 1 a 1,1 0 0 0 0,-1 h 1 c 1,0 0,0 0,0 l 1,-1 c 1,-1 0,0 0,0 l 1,-1 h 1 v -1 h 2 v -1 h 1 v -1 h 2 l 1,-1 c 0,-1 0,0 0,0 h 1 l 1,-1 c 0,-1 0,0 0,0 h 2 l 1,-1 c 0,-1 0,0 0,0 h 4 a 2,2 0 0 0 1,-1 h 6 c 1,0 0,0 0,0 a 3,3 0 0 0 1,0 h 1 l 1,1 a 10,10 0 0 1 1,0 h 1 l 1,1 h 1 l 1,1 a 2,2 0 0 1 1,0 7,7 0 0 0 0,1 4,4 0 0 1 1,0 v 1 h 1 v 1 l 1,1 c 1,0 0,0 0,0 v 1 a 1,1 0 0 1 0,1 h 1 v 2 a 5,5 0 0 0 0,1 28,28 0 0 0 1,2 v 5 h -1 v 7 h -1 v 1 c 0,1 0,0 0,0 a 4,4 0 0 1 0,1 v 1 a 5,5 0 0 1 -1,0 v 2 l -1,1 v 2 a 1,1 0 0 0 -1,0 v 2 c 0,1 0,0 0,0 h -1 c -1,0 0,0 0,0 v 2 h -1 c -1,0 0,0 0,0 v 2 h -1 v 1 l -1,1 -1,1 v 1 h -1 v 1 h -1 a 1,1 0 0 1 0,1 h -1 v 1 l -1,1 a 2,2 0 0 1 -1,1 3,3 0 0 1 -1,1 h -1 v 1 h -1 c -1,0 0,0 0,0 h -1 v 1 h -1 c -1,0 0,0 0,0 h -1 a 9,9 0 0 1 -1,0 h -1 a 2,2 0 0 1 0,-1 h -1 c -1,0 0,0 0,0 a 3,3 0 0 1 -1,0 8,8 0 0 1 0,-1 4,4 0 0 1 -1,0 4,4 0 0 1 0,-1 6,6 0 0 1 -1,-1 v -1 c 0,0 1,0 0,0 a 12,12 0 0 1 0,-1 1,1 0 0 1 0,-1 v -2 l 1,-2 v -1 c 0,-1 0,0 0,0 a 1,1 0 0 0 1,0 v -2 h 1 a 3,3 0 0 0 0,-1 v -1 h 1 v -1 c 0,-1 0,0 0,0 v -1 h 1 v -2 h 1 a 3,3 0 0 0 0,-1 v -1 a 4,4 0 0 0 0,-1 l 1,-1 a 10,10 0 0 0 0,-1 v -1 a 4,4 0 0 0 -1,-1 v -1 a 2,2 0 0 0 -1,0 l -1,-1 h -1 a 5,5 0 0 0 -1,1 h -1 a 2,2 0 0 0 -1,0 v 1 h -1 v 1 c 0,1 0,0 0,0 a 3,3 0 0 1 -1,0 v 1 a 1,1 0 0 0 -1,0 v 1 h -1 v 1 h -1 c -1,0 0,0 0,0 v 1 h -1 v 1 c 0,1 0,0 0,0 h -1 c -1,0 0,0 0,0 v 1 l -1,1 c 0,1 0,0 0,0 a 2,2 0 0 0 0,1 h -1 v 1 h -1 v 1 l -1,1 c 0,1 0,0 0,0 v 1 h -1 v 1 h -1 v 2 h -1 v 1 a 3,3 0 0 1 -1,1 v 1 a 3,3 0 0 0 0,1 1,1 0 0 1 -1,0 v 1 a 7,7 0 0 0 0,1 h -1 v 2 c 0,1 0,0 0,0 l -1,1 v 1 a 3,3 0 0 0 0,1 v 2 l -1,1 v 2 a 8,8 0 0 0 0,1 v 1 c 0,1 0,0 0,0 v 1 l 1,1 v 3 c 0,1 0,0 0,0 h 1 v 2 h 1 c 1,0 0,0 0,0 v 1 h 1 v 1 a 2,2 0 0 1 1,1 3,3 0 0 1 1,1 l 1,1 c 1,1 0,0 0,0 a 11,11 0 0 0 1,1 2,2 0 0 1 1,0 v 1 a 1,1 0 0 1 1,0 v 1 h 1 v 1 h 1 a 2,2 0 0 0 0,1 h 1 v 1 h 2 v 1 c 0,1 0,0 0,0 a 2,2 0 0 1 1,0 7,7 0 0 0 0,1 h 1 c 1,0 0,0 0,0 h 1 v 1 h 1 c 1,0 0,0 0,0 l 1,1 h 1 v 1 h 2 v 1 h 2 c 1,0 0,0 0,0 v 1 h 1 c 1,0 0,0 0,0 h 1 v 1 h 1 l 2,1 h 1 a 4,4 0 0 0 0,1 3,3 0 0 1 1,0 v 1 h 1 a 2,2 0 0 0 1,0 2,2 0 0 1 0,1 h 1 l 1,1 c 0,1 0,0 0,0 a 4,4 0 0 1 1,0 3,3 0 0 0 0,1 h 1 l 1,1 h 1 v 1 h 1 l 1,1 a 1,1 0 0 1 1,0 v 1 l 1,1 h 1 a 10,10 0 0 0 1,1 v 1 h 1 a 1,1 0 0 0 0,1 h 1 c 1,0 0,0 0,0 v 1 h 1 v 1 a 3,3 0 0 0 1,0 l 1,1 c 1,0 0,0 0,0 v 1 h 1 v 1 h 1 v 1 c 0,1 0,0 0,0 l 1,1 c 1,0 0,0 0,0 v 1 c 0,1 0,0 0,0 h 1 c 1,0 0,0 0,0 v 1 l 1,1 c 0,1 0,0 0,0 v 1 h 1 v 2 a 2,2 0 0 0 1,0 v 1 l 1,1 c 1,1 0,0 0,0 v 1 l 1,1 c 1,1 0,0 0,0 a 2,2 0 0 0 0,1 v 1 h 1 a 3,3 0 0 1 0,1 v 1 l 1,2 a 7,7 0 0 1 0,1 v 1 a 1,1 0 0 1 0,1 l 1,1 h -1 a 4,4 0 0 0 1,1 v 2 z m 197,-64 c 0,-2 -6,-3 -6,0 0,2 5,3 6,0 z m 13,1 c 1,5 -2,7 -5,9 -10,6 -17,3 -24,-5 -2,-3 -2,-13 1,-16 a 14,14 0 0 1 4,-4 c 5,-2 10,-1 14,1 5,2 9,7 9,12 z m -181,24 h -1 v 1 h -1 a 3,3 0 0 0 0,1 l 1,1 a 3,3 0 0 0 1,0 h 1 c 1,-1 3,-3 -1,-3 z m 0,18 -1,-1 h -1 c -1,0 0,0 0,0 h -1 l -1,-1 h -1 a 13,13 0 0 1 -6,-7 c -2,-5 -2,-11 1,-16 l 5,-5 a 5,5 0 0 0 0,-1 4,4 0 0 0 1,0 v -1 c 0,-1 0,0 0,0 a 2,2 0 0 0 0,-1 h -1 v -1 c -2,0 -8,0 -10,3 a 20,20 0 0 0 -3,7 l -1,25 c 0,5 5,27 14,23 a 5,5 0 0 0 1,0 5,5 0 0 1 0,-1 h 1 a 3,3 0 0 0 1,0 v -1 h 1 c 1,0 0,0 0,0 v -1 h 1 a 3,3 0 0 1 0,-1 h 1 c 3,-6 6,-15 -1,-20 z m 194,60 v -13 l 8,-48 c 1,-7 -5,2 -6,3 -5,4 -8,3 -13,-5 -2,-2 -5,-4 -6,0 -2,5 -7,11 -13,6 -2,-2 -6,-9 -10,-5 -7,6 -13,19 -26,9 -2,-1 -3,-4 -5,-1 l -6,5 c -4,4 -15,10 -20,8 -3,-2 -5,-5 -8,-2 a 9,9 0 0 1 -5,3 c -13,3 -19,-33 -24,-4 -1,3 -3,8 -6,9 -4,2 -7,-4 -8,-7 0,-2 -3,-18 -7,-11 -4,7 -2,15 -5,22 -1,4 -7,6 -10,2 -3,-5 -3,-10 -3,-16 0,-4 -1,-13 -6,-15 -3,0 0,7 0,8 0,13 -3,24 -14,31 h -1 c -1,0 0,0 0,0 a 4,4 0 0 1 -1,0 v 1 a 5,5 0 0 1 -1,0 h -1 l -1,1 a 3,3 0 0 1 -1,0 c -10,3 -17,-11 -20,-19 a 132,132 0 0 1 -5,-21 108,108 0 0 1 0,-28 c 1,-9 6,-21 16,-23 18,-4 25,13 26,26 1,7 5,7 10,11 l 4,4 c 2,5 4,-3 5,-4 a 19,19 0 0 1 3,-5 c 10,-9 14,10 18,8 4,-2 4,-7 8,-9 12,-10 13,19 23,23 4,2 5,-10 6,-12 3,-12 10,-29 23,-34 7,-2 18,1 23,7 3,5 4,10 -1,13 -8,5 -9,-2 -15,-3 a 8,8 0 0 0 -5,1 c -5,3 -15,19 -11,24 2,4 5,1 8,0 4,-3 6,-7 8,-10 2,-3 7,-8 10,-8 8,0 2,14 8,14 l 16,-18 c 5,-3 7,-1 9,4 a 10,10 0 0 0 3,3 c 8,5 6,-17 17,-12 4,2 8,12 11,12 l 9,-17 c 3,-5 8,-5 10,2 3,9 2,19 1,29 -1,20 -2,43 4,62 1,5 7,11 5,17 -2,4 -10,2 -13,0 -7,-5 -13,-10 -15,-18 z m 113,-98 c 1,4 -2,11 -6,14 l -1,2 -8,8 a 102,102 0 0 1 -12,9 c -7,4 -17,7 -22,0 -1,-2 -5,-5 -7,-3 -2,4 -6,6 -10,8 -4,3 -11,3 -16,0 -10,-8 -10,-30 -2,-40 l 8,-9 2,-3 c 6,-5 16,-13 24,-8 9,5 5,15 -3,17 h -2 c -7,2 -13,5 -18,11 -2,3 -6,10 -2,14 6,5 11,-4 13,-8 2,-5 8,-16 15,-10 4,3 2,6 3,10 l 4,5 c 10,3 14,-11 18,-17 4,-6 9,-10 16,-8 4,2 5,4 6,8 z"
         class="cls-3"
         id="path1045" />
      <path
         fill="#005baa"
         d="M 0,0 H 517 V 293 H 0 Z"
         id="path1047" />
      <path
         d="m 141,182 v 5 l -1,1 v 4 c 0,1 0,0 0,0 v 1 l -1,1 v 2 c 0,1 0,0 0,0 a 4,4 0 0 1 -1,1 v 1 c 0,1 0,0 0,0 v 1 h -1 v 1 a 3,3 0 0 1 0,1 h -1 v 1 c 0,1 0,0 0,0 l -1,1 v 1 l -1,1 c 0,1 0,0 0,0 a 2,2 0 0 1 -1,1 2,2 0 0 0 -1,1 v 1 h -1 a 1,1 0 0 1 0,1 h -1 c -1,0 0,0 0,0 l -1,1 -1,1 h -1 a 1,1 0 0 0 0,1 h -1 v 1 h -1 l -1,1 h -1 c -1,0 0,0 0,0 v 1 c 0,1 0,0 0,0 h -1 c -1,0 0,0 0,0 h -1 v 1 h -1 l -1,1 h -1 c -1,0 0,0 0,0 l -1,1 c -1,0 0,0 0,0 h -1 c -1,0 0,0 0,0 v 1 h -2 c -1,0 0,0 0,0 l -1,1 h -2 a 11,11 0 0 0 -1,1 h -2 l -1,1 h -2 l -1,1 h -2 l -2,1 h -2 c -1,0 0,0 0,0 a 5,5 0 0 0 -1,0 l -1,1 h -4 a 7,7 0 0 0 -1,0 l -3,1 a 4,4 0 0 1 -1,0 1,1 0 0 0 -1,0 h -8 a 9,9 0 0 1 -1,0 h -2 a 9,9 0 0 1 -1,0 h -5 a 14,14 0 0 1 -1,-1 h -5 v -1 h -3 l -1,-1 h -2 v -1 h -1 c -1,0 0,0 0,0 h -1 v -1 h -2 v -1 h -2 v -1 h -2 v -1 h -1 c -1,0 0,0 0,0 v -1 h -2 v -1 h -1 a 1,1 0 0 1 0,-1 h -1 l -1,-1 c -1,-1 0,0 0,0 l -1,-1 -1,-1 c 0,-1 0,0 0,0 v -1 h -1 v -1 a 3,3 0 0 1 0,-1 4,4 0 0 0 0,-1 v -4 a 7,7 0 0 1 0,-1 l 1,-1 a 4,4 0 0 1 0,-1 v -1 h 1 v -2 h 1 v -2 h 1 v -1 c 0,-1 0,0 0,0 a 1,1 0 0 1 1,0 v -1 h 1 a 3,3 0 0 0 0,-1 l 1,-1 c 1,-1 0,0 0,0 a 3,3 0 0 1 1,0 v -1 a 1,1 0 0 0 1,0 3,3 0 0 1 0,-1 h 1 l 1,-1 c 1,0 0,0 0,0 h 1 v -1 h 1 a 2,2 0 0 0 1,-1 h 1 l 1,-1 c 1,-1 0,0 0,0 h 2 l 1,-1 a 13,13 0 0 1 2,0 14,14 0 0 1 1,0 13,13 0 0 1 2,0 7,7 0 0 1 1,0 h 1 c 1,0 0,0 0,0 v 1 c 0,1 0,0 0,0 h 2 v 1 c 0,1 0,0 0,0 a 3,3 0 0 1 1,0 v 1 a 18,18 0 0 1 1,1 1,1 0 0 1 1,0 v 1 c 0,1 0,0 0,0 v 1 c 0,1 0,0 0,0 l 1,1 c 0,1 0,0 0,0 v 3 a 4,4 0 0 1 0,1 v 1 a 2,2 0 0 1 -1,0 v 1 l -1,1 c -1,1 0,0 0,0 v 1 a 1,1 0 0 0 -1,0 v 1 h -1 v 1 a 1,1 0 0 0 0,1 1,1 0 0 0 0,1 l 1,1 1,1 c 1,0 0,0 0,0 h 1 a 1,1 0 0 0 0,1 h 1 a 7,7 0 0 1 1,0 h 3 a 6,6 0 0 0 1,1 l 1,-1 1,1 c 1,0 0,0 0,0 a 5,5 0 0 0 1,0 1,1 0 0 1 1,0 3,3 0 0 1 1,0 h 2 a 8,8 0 0 1 1,-1 h 6 c 1,0 0,0 0,0 a 5,5 0 0 1 1,0 6,6 0 0 0 1,-1 h 2 a 5,5 0 0 0 1,0 8,8 0 0 1 1,-1 h 3 a 5,5 0 0 0 1,0 6,6 0 0 1 0,-1 h 1 a 1,1 0 0 0 1,0 h 1 l 1,-1 h 2 c 1,0 0,0 0,0 l 1,-1 h 1 v -1 a 5,5 0 0 0 1,0 h 1 v -1 h 2 v -1 h 1 c 1,0 0,0 0,0 h 1 v -1 h 1 a 5,5 0 0 1 0,-1 h 2 v -1 h 1 v -1 h 1 a 3,3 0 0 0 0,-1 3,3 0 0 1 1,-1 v -1 c 0,-1 0,0 0,0 h 1 v -1 h 1 c 1,0 0,0 0,0 v -1 h 1 a 1,1 0 0 0 0,-1 v -2 a 7,7 0 0 0 0,-2 9,9 0 0 0 0,-1 v -1 a 2,2 0 0 0 0,-1 v -1 a 6,6 0 0 0 -1,0 v -2 a 3,3 0 0 1 -1,0 v -1 c 0,-1 0,0 0,0 h -1 c -1,0 0,0 0,0 v -1 l -1,-1 v -1 h -1 a 4,4 0 0 0 0,-1 h -1 a 3,3 0 0 0 0,-1 h -1 c -1,0 0,0 0,0 l -1,-1 v -1 a 2,2 0 0 0 -1,0 v -1 c 0,-1 0,0 0,0 a 2,2 0 0 0 -1,0 v -1 h -1 a 1,1 0 0 1 0,-1 h -1 a 3,3 0 0 0 -1,-1 5,5 0 0 1 -1,-1 h -1 v -1 c 0,-1 0,0 0,0 h -1 v -1 h -1 l -1,-1 c -1,0 0,0 0,0 l -1,-1 h -1 a 1,1 0 0 1 0,-1 h -1 v -1 h -1 l -1,-1 c -1,-1 0,0 0,0 h -1 a 3,3 0 0 0 0,-1 h -1 v -1 h -2 v -1 h -1 c -1,0 0,0 0,0 v -1 h -2 c -1,0 0,0 0,0 v -1 h -1 l -1,-1 c -1,-1 0,0 0,0 a 4,4 0 0 0 -1,0 3,3 0 0 1 0,-1 h -2 v -1 a 5,5 0 0 0 -1,0 l -1,-1 c 0,-1 0,0 0,0 h -1 l -1,-1 h -1 a 6,6 0 0 1 -1,-1 3,3 0 0 0 -1,0 3,3 0 0 1 0,-1 1,1 0 0 0 -1,0 h -1 c -1,0 0,0 0,0 v -1 h -2 c -1,0 0,0 0,0 v -1 c 0,-1 0,0 0,0 h -2 v -1 a 1,1 0 0 0 -1,0 h -1 l -1,-1 v -1 h -2 v -1 h -1 v -1 a 1,1 0 0 0 -1,0 3,3 0 0 0 0,-1 h -1 a 5,5 0 0 1 0,-1 h -1 v -1 h -1 a 1,1 0 0 0 0,-1 h -1 v -1 l -1,-1 c -1,-1 0,0 0,0 v -1 h -1 v -1 a 1,1 0 0 1 -1,0 v -2 a 4,4 0 0 1 -1,-1 v -2 h -1 v -1 a 3,3 0 0 1 0,-1 l -1,-1 v -1 c 0,-1 0,0 0,0 v -1 l -1,-2 v -1 a 2,2 0 0 1 0,-1 v -7 h -1 a 3,3 0 0 1 1,-1 v -6 a 4,4 0 0 0 0,-1 v -2 h 1 v -3 a 5,5 0 0 1 1,0 v -2 l 1,-1 v -1 a 1,1 0 0 0 1,-1 6,6 0 0 1 0,-1 l 1,-1 v -2 a 5,5 0 0 1 1,0 v -1 a 1,1 0 0 0 0,-1 h 1 c 1,0 0,0 0,0 v -2 h 1 v -2 h 1 a 7,7 0 0 1 0,-1 v -1 h 1 c 1,0 0,0 0,0 v -1 l 1,-1 v -1 h 1 v -1 c 0,-1 0,0 0,0 l 1,-1 c 1,0 0,0 0,0 a 3,3 0 0 0 0,-1 1,1 0 0 0 0,-1 2,2 0 0 1 1,0 v -1 l 1,-1 a 5,5 0 0 0 0,-1 h 1 c 1,0 0,0 0,0 v -1 c 0,-1 0,0 0,0 h 1 v -1 l 1,-1 a 2,2 0 0 0 0,-1 h 1 v -1 c 0,-1 0,0 0,0 h 1 v -1 h 1 v -1 a 3,3 0 0 1 1,0 v -1 h 1 c 1,0 0,0 0,0 a 1,1 0 0 1 0,-1 h 1 v -1 h 1 v -1 h 1 a 3,3 0 0 1 1,-1 l 1,-1 h 1 v -1 c 0,-1 0,0 0,0 a 3,3 0 0 1 1,0 h 1 c 1,0 0,0 0,0 v -1 a 5,5 0 0 1 1,0 l 1,-1 c 1,0 0,0 0,0 h 1 c 1,0 0,0 0,0 h 1 v -1 h 2 v -1 h 3 v -1 h 1 a 4,4 0 0 0 1,0 h 2 c 1,0 0,0 0,0 h 1 v -1 h 8 v 1 h 1 a 10,10 0 0 1 1,0 h 1 c 1,0 0,0 0,0 a 1,1 0 0 0 0,1 h 2 v 1 c 0,1 0,0 0,0 a 2,2 0 0 0 1,0 l 1,1 a 4,4 0 0 1 1,1 l 1,1 v 1 a 3,3 0 0 1 1,1 v 1 l 1,1 v 1 a 5,5 0 0 0 0,1 28,28 0 0 0 0,2 v 4 h 1 l -1,1 v 6 l -1,1 v 2 h -1 v 3 h -1 v 3 h -1 v 2 h -1 v 2 h -1 v 1 l -1,1 c -1,0 0,0 0,0 v 1 a 1,1 0 0 1 -1,0 v 1 l -1,1 v 1 a 1,1 0 0 0 -1,0 l -1,1 v 1 h -1 v 1 a 1,1 0 0 1 -1,1 2,2 0 0 1 -1,1 l -1,1 -1,1 c 0,1 0,0 0,0 a 3,3 0 0 1 -1,0 h -1 v 1 h -2 a 9,9 0 0 1 -1,0 3,3 0 0 1 -1,0 2,2 0 0 1 -1,0 v -1 c 0,-1 0,0 0,0 a 3,3 0 0 1 -1,0 8,8 0 0 1 0,-1 4,4 0 0 1 -1,0 4,4 0 0 1 0,-1 6,6 0 0 1 -1,-1 v -1 a 12,12 0 0 1 0,-1 6,6 0 0 0 0,-1 v -3 h 1 v -1 c 0,-1 0,0 0,0 v -1 c 0,-1 0,0 0,0 a 1,1 0 0 1 1,0 v -1 a 3,3 0 0 1 0,-1 3,3 0 0 0 1,0 v -2 h 1 v -1 c 0,-1 0,0 0,0 v -1 h 1 v -2 h 1 a 3,3 0 0 0 0,-1 v -1 a 4,4 0 0 0 0,-1 l 1,-1 a 10,10 0 0 0 0,-1 v -1 a 4,4 0 0 0 -1,-1 v -1 a 2,2 0 0 0 -1,0 l -1,-1 h -1 a 5,5 0 0 0 -1,1 h -1 a 2,2 0 0 0 -1,0 v 1 h -1 v 1 c 0,1 0,0 0,0 a 3,3 0 0 1 -1,0 v 1 a 1,1 0 0 0 -1,0 v 1 h -1 v 1 h -1 c -1,0 0,0 0,0 v 1 h -1 v 1 c 0,1 0,0 0,0 h -1 c -1,0 0,0 0,0 v 1 l -1,1 c 0,1 0,0 0,0 a 2,2 0 0 0 0,1 h -1 v 1 h -1 v 1 l -1,1 c 0,1 0,0 0,0 v 1 h -1 v 1 h -1 v 2 h -1 v 1 c 0,1 0,0 0,0 a 3,3 0 0 1 -1,1 v 1 a 3,3 0 0 0 0,1 1,1 0 0 1 -1,0 v 1 a 7,7 0 0 0 0,1 h -1 v 2 c 0,1 0,0 0,0 l -1,1 v 1 a 3,3 0 0 0 0,1 v 2 l -1,1 v 2 a 8,8 0 0 0 0,1 v 1 c 0,1 0,0 0,0 v 1 l 1,1 v 3 c 0,1 0,0 0,0 h 1 v 2 h 1 c 1,0 0,0 0,0 v 1 h 1 v 1 a 2,2 0 0 1 1,1 3,3 0 0 1 1,1 l 1,1 c 1,1 0,0 0,0 a 11,11 0 0 0 1,1 2,2 0 0 1 1,0 v 1 c 0,1 0,0 0,0 a 1,1 0 0 1 1,1 h 1 v 1 h 1 v 1 h 1 v 1 c 0,1 0,0 0,0 h 1 l 1,1 c 0,1 0,0 0,0 a 2,2 0 0 1 1,0 7,7 0 0 0 0,1 h 1 c 1,0 0,0 0,0 l 1,1 c 0,1 0,0 0,0 h 1 c 1,0 0,0 0,0 l 1,1 h 1 v 1 h 2 v 1 h 2 c 1,0 0,0 0,0 v 1 h 1 c 1,0 0,0 0,0 h 1 v 1 h 1 l 2,1 h 1 a 4,4 0 0 0 0,1 3,3 0 0 1 1,0 v 1 h 1 a 2,2 0 0 0 1,0 2,2 0 0 1 0,1 h 1 l 1,1 c 0,1 0,0 0,0 a 4,4 0 0 1 1,0 3,3 0 0 0 0,1 h 1 v 1 h 1 l 1,1 h 1 l 1,1 a 1,1 0 0 1 1,1 l 1,1 h 1 v 1 a 10,10 0 0 0 1,0 v 1 c 0,1 0,0 0,0 h 1 a 1,1 0 0 0 0,1 h 1 c 1,0 0,0 0,0 v 1 c 0,1 0,0 0,0 h 1 v 1 h 1 v 1 h 1 c 1,0 0,0 0,0 v 1 h 1 v 1 h 1 v 1 c 0,1 0,0 0,0 l 1,1 c 1,0 0,0 0,0 a 5,5 0 0 1 0,1 h 1 v 1 l 1,1 c 0,1 0,0 0,0 v 1 h 1 v 2 a 2,2 0 0 0 1,0 v 1 l 1,1 c 1,1 0,0 0,0 v 1 l 1,1 c 1,0 0,0 0,0 a 2,2 0 0 0 0,1 v 1 h 1 a 3,3 0 0 1 0,1 v 3 h 1 a 7,7 0 0 1 0,1 v 2 l 1,1 -1,1 a 4,4 0 0 0 1,0 v 2 z m 197,-64 c 0,-3 -6,-3 -6,0 0,2 5,3 6,0 z m 13,1 c 1,5 -2,7 -5,9 -10,6 -17,3 -24,-5 -2,-3 -2,-13 1,-16 a 14,14 0 0 1 4,-4 c 5,-2 10,-1 14,1 5,2 8,7 9,12 z m -181,24 h -1 v 1 h -1 a 3,3 0 0 0 0,1 l 1,1 a 3,3 0 0 0 1,0 h 1 c 1,-1 3,-3 -1,-3 z m 0,18 -1,-1 h -1 c -1,0 0,0 0,0 h -1 v -1 h -2 a 13,13 0 0 1 -6,-7 c -2,-5 -2,-11 1,-16 l 5,-5 a 5,5 0 0 0 0,-1 4,4 0 0 0 1,0 v -1 c 0,-1 0,0 0,0 a 2,2 0 0 0 0,-1 h -1 v -1 c -2,0 -8,0 -10,2 a 20,20 0 0 0 -3,7 l -1,25 c 0,6 5,28 14,24 a 5,5 0 0 0 1,0 5,5 0 0 1 0,-1 h 1 a 3,3 0 0 0 1,0 v -1 h 1 c 1,0 0,0 0,0 v -1 h 1 a 3,3 0 0 1 0,-1 h 1 c 3,-6 6,-15 -1,-20 z m 194,60 v -13 l 8,-48 c 1,-7 -5,2 -6,3 -5,3 -8,3 -13,-5 -2,-2 -5,-4 -6,0 -2,5 -7,11 -13,6 -2,-2 -6,-9 -10,-6 -7,7 -13,20 -26,10 -2,-1 -3,-4 -5,-1 l -6,5 c -4,4 -15,10 -20,8 -3,-2 -5,-5 -8,-2 a 9,9 0 0 1 -5,3 c -13,3 -19,-33 -24,-4 -1,3 -3,8 -6,9 -4,1 -7,-4 -8,-7 0,-2 -3,-18 -7,-11 -4,7 -2,15 -5,22 -1,4 -7,6 -10,2 -3,-5 -3,-10 -3,-16 0,-4 -1,-13 -6,-15 -3,0 0,6 0,8 0,13 -3,23 -14,30 l -1,1 c -1,0 0,0 0,0 a 4,4 0 0 1 -1,0 5,5 0 0 1 -1,1 h -2 v 1 a 3,3 0 0 1 -1,0 c -10,3 -17,-11 -20,-19 a 132,132 0 0 1 -5,-21 108,108 0 0 1 0,-28 c 1,-9 6,-21 16,-23 18,-4 25,13 26,26 1,7 5,7 10,11 l 4,4 c 2,5 4,-3 5,-4 a 19,19 0 0 1 3,-5 c 10,-9 14,10 18,8 4,-2 4,-7 8,-9 12,-10 13,19 23,23 4,2 5,-10 6,-12 3,-12 10,-29 23,-34 7,-2 18,1 23,7 3,5 4,10 -1,13 -8,5 -9,-2 -15,-3 a 8,8 0 0 0 -5,1 c -5,3 -15,19 -11,24 2,4 5,1 8,-1 4,-2 6,-6 8,-9 2,-3 7,-8 10,-8 8,0 2,14 8,14 l 16,-18 c 5,-3 7,-1 9,4 a 10,10 0 0 0 3,3 c 8,5 6,-17 17,-12 4,2 8,12 11,12 l 9,-17 c 3,-5 8,-5 10,2 2,9 2,19 1,29 -1,20 -2,43 4,62 1,5 7,11 5,17 -2,4 -10,2 -13,0 -7,-5 -13,-10 -15,-18 z m 113,-98 c 1,4 -3,11 -6,14 l -1,2 -8,8 a 102,102 0 0 1 -12,9 c -7,4 -17,7 -22,0 -1,-2 -5,-5 -7,-3 -2,4 -6,6 -10,8 -4,3 -11,3 -16,0 -10,-8 -10,-30 -2,-40 2,-3 4,-7 8,-9 l 2,-3 c 6,-5 16,-13 24,-8 9,5 5,15 -3,17 h -2 c -7,2 -13,5 -18,11 -2,3 -6,10 -2,14 6,5 11,-4 13,-8 2,-5 8,-16 15,-10 4,3 2,6 3,10 l 4,5 c 10,3 14,-11 18,-18 4,-5 9,-9 16,-7 4,2 5,4 6,8 z"
         class="cls-3"
         id="path1049" />
    </g>
  </g>
</svg>
